<?xml version="1.0" encoding="UTF-8" standalone="no"?>
<!-- Created with Inkscape (http://www.inkscape.org/) -->

<svg
   xmlns:dc="http://purl.org/dc/elements/1.1/"
   xmlns:cc="http://creativecommons.org/ns#"
   xmlns:rdf="http://www.w3.org/1999/02/22-rdf-syntax-ns#"
   xmlns:svg="http://www.w3.org/2000/svg"
   xmlns="http://www.w3.org/2000/svg"
   xmlns:sodipodi="http://sodipodi.sourceforge.net/DTD/sodipodi-0.dtd"
   xmlns:inkscape="http://www.inkscape.org/namespaces/inkscape"
   id="svg2"
   version="1.1"
   inkscape:version="0.48.4 r9939"
   width="517.5"
   height="517.5"
   xml:space="preserve"
   sodipodi:docname="svm_exclusive - Cópia.pdf"><metadata
     id="metadata8"><rdf:RDF><cc:Work
         rdf:about=""><dc:format>image/svg+xml</dc:format><dc:type
           rdf:resource="http://purl.org/dc/dcmitype/StillImage" /><dc:title></dc:title></cc:Work></rdf:RDF></metadata><defs
     id="defs6"><clipPath
       clipPathUnits="userSpaceOnUse"
       id="clipPath18"><path
         d="m 59.04,73.44 325.47,0 0,281.52 -325.47,0 0,-281.52 z"
         id="path20" /></clipPath><clipPath
       clipPathUnits="userSpaceOnUse"
       id="clipPath26"><path
         d="m 59.04,73.44 325.47,0 0,281.52 -325.47,0 0,-281.52 z"
         id="path28" /></clipPath><clipPath
       clipPathUnits="userSpaceOnUse"
       id="clipPath88"><path
         d="m 59.04,73.44 325.47,0 0,281.52 -325.47,0 0,-281.52 z"
         id="path90" /></clipPath></defs><sodipodi:namedview
     pagecolor="#ffffff"
     bordercolor="#666666"
     borderopacity="1"
     objecttolerance="10"
     gridtolerance="10"
     guidetolerance="10"
     inkscape:pageopacity="0"
     inkscape:pageshadow="2"
     inkscape:window-width="1366"
     inkscape:window-height="706"
     id="namedview4"
     showgrid="false"
     inkscape:zoom="0.45603865"
     inkscape:cx="258.75"
     inkscape:cy="258.75"
     inkscape:window-x="-8"
     inkscape:window-y="-8"
     inkscape:window-maximized="1"
     inkscape:current-layer="g10" /><g
     id="g10"
     inkscape:groupmode="layer"
     inkscape:label="svm_exclusive - Cópia"
     transform="matrix(1.25,0,0,-1.25,0,517.5)"><g
       id="g12" /><g
       id="g14"><g
         id="g16"
         clip-path="url(#clipPath18)" /></g><g
       id="g22"><g
         id="g24"
         clip-path="url(#clipPath26)"><path
           d="m 161.5,222.09 120.55,0"
           style="fill:none;stroke:#000000;stroke-opacity:1;stroke-width:2.25;stroke-linecap:butt;stroke-linejoin:round;stroke-miterlimit:10;stroke-dasharray:none"
           id="path30" /><path
           d="m 221.77,83.87 0,105.54"
           style="fill:none;stroke:#000000;stroke-opacity:1;stroke-width:0.75;stroke-linecap:round;stroke-linejoin:round;stroke-miterlimit:10;stroke-dasharray:2.25,3.75;stroke-dashoffset:0"
           id="path32" /><path
           d="m 221.77,344.53 0,-52.85"
           style="fill:none;stroke:#000000;stroke-opacity:1;stroke-width:0.75;stroke-linecap:round;stroke-linejoin:round;stroke-miterlimit:10;stroke-dasharray:2.25,3.75;stroke-dashoffset:0"
           id="path34" /><path
           d="m 191.64,83.87 60.27,0"
           style="fill:none;stroke:#000000;stroke-opacity:1;stroke-width:0.75;stroke-linecap:round;stroke-linejoin:round;stroke-miterlimit:10;stroke-dasharray:none"
           id="path36" /><path
           d="m 191.64,344.53 60.27,0"
           style="fill:none;stroke:#000000;stroke-opacity:1;stroke-width:0.75;stroke-linecap:round;stroke-linejoin:round;stroke-miterlimit:10;stroke-dasharray:none"
           id="path38" /><path
           d="m 161.5,189.41 120.55,0 0,102.27 -120.55,0 0,-102.27"
           style="fill:none;stroke:#000000;stroke-opacity:1;stroke-width:0.75;stroke-linecap:round;stroke-linejoin:round;stroke-miterlimit:10;stroke-dasharray:none"
           id="path40" /></g></g><g
       id="g42"><path
         d="m 59.04,104.48 0,201.85"
         style="fill:none;stroke:#000000;stroke-opacity:1;stroke-width:0.75;stroke-linecap:round;stroke-linejoin:round;stroke-miterlimit:10;stroke-dasharray:none"
         id="path44" /><path
         d="m 59.04,104.48 -7.2,0"
         style="fill:none;stroke:#000000;stroke-opacity:1;stroke-width:0.75;stroke-linecap:round;stroke-linejoin:round;stroke-miterlimit:10;stroke-dasharray:none"
         id="path46" /><path
         d="m 59.04,171.76 -7.2,0"
         style="fill:none;stroke:#000000;stroke-opacity:1;stroke-width:0.75;stroke-linecap:round;stroke-linejoin:round;stroke-miterlimit:10;stroke-dasharray:none"
         id="path48" /><path
         d="m 59.04,239.05 -7.2,0"
         style="fill:none;stroke:#000000;stroke-opacity:1;stroke-width:0.75;stroke-linecap:round;stroke-linejoin:round;stroke-miterlimit:10;stroke-dasharray:none"
         id="path50" /><path
         d="m 59.04,306.33 -7.2,0"
         style="fill:none;stroke:#000000;stroke-opacity:1;stroke-width:0.75;stroke-linecap:round;stroke-linejoin:round;stroke-miterlimit:10;stroke-dasharray:none"
         id="path52" /><text
         transform="matrix(0,1,1,0,41.76,89.47)"
         id="text54"><tspan
           style="fill:#000000;fill-opacity:1;fill-rule:nonzero;stroke:none;font-family:Helvetica;font-variant:normal;font-weight:normal;font-size:12;writing-mode:lr;-inkscape-font-specification:Helvetica"
           x="0 6.672 10.008 16.68 23.352"
           y="0"
           sodipodi:role="line"
           id="tspan56">0.085</tspan></text>
<text
         transform="matrix(0,1,1,0,41.76,156.75)"
         id="text58"><tspan
           style="fill:#000000;fill-opacity:1;fill-rule:nonzero;stroke:none;font-family:Helvetica;font-variant:normal;font-weight:normal;font-size:12;writing-mode:lr;-inkscape-font-specification:Helvetica"
           x="0 6.672 10.008 16.68 23.352"
           y="0"
           sodipodi:role="line"
           id="tspan60">0.090</tspan></text>
<text
         transform="matrix(0,1,1,0,41.76,224.04)"
         id="text62"><tspan
           style="fill:#000000;fill-opacity:1;fill-rule:nonzero;stroke:none;font-family:Helvetica;font-variant:normal;font-weight:normal;font-size:12;writing-mode:lr;-inkscape-font-specification:Helvetica"
           x="0 6.672 10.008 16.68 23.352"
           y="0"
           sodipodi:role="line"
           id="tspan64">0.095</tspan></text>
<text
         transform="matrix(0,1,1,0,41.76,291.32)"
         id="text66"><tspan
           style="fill:#000000;fill-opacity:1;fill-rule:nonzero;stroke:none;font-family:Helvetica;font-variant:normal;font-weight:normal;font-size:12;writing-mode:lr;-inkscape-font-specification:Helvetica"
           x="0 6.672 10.008 16.68 23.352"
           y="0"
           sodipodi:role="line"
           id="tspan68">0.100</tspan></text>
</g><g
       id="g70"><text
         transform="matrix(1,0,0,-1,171.6,379.45)"
         id="text72"><tspan
           style="fill:#000000;fill-opacity:1;fill-rule:nonzero;stroke:none;font-family:Helvetica;font-variant:normal;font-weight:bold;font-size:14;writing-mode:lr;-inkscape-font-specification:Helvetica-Bold"
           x="0 9.338 18.676 30.338 34.23 42.784 51.338 56 63.784 72.338 84.784 92.568"
           y="0"
           sodipodi:role="line"
           id="tspan74">SVM outcomes</tspan></text>
<text
         transform="matrix(0,1,1,0,12.96,164.21)"
         id="text76"><tspan
           style="fill:#000000;fill-opacity:1;fill-rule:nonzero;stroke:none;font-family:Helvetica;font-variant:normal;font-weight:normal;font-size:12;writing-mode:lr;-inkscape-font-specification:Helvetica"
           x="0 8.664 15.336 19.632 29.628 36.3 38.964 41.628 47.448 54.12 60.792 64.128 71.292 77.964 80.628 87.3 93.972"
           y="0"
           sodipodi:role="line"
           id="tspan78">Normalized Values</tspan></text>
</g><g
       id="g80"><path
         d="m 59.04,73.44 325.47,0 0,281.52 -325.47,0 0,-281.52"
         style="fill:none;stroke:#000000;stroke-opacity:1;stroke-width:0.75;stroke-linecap:round;stroke-linejoin:round;stroke-miterlimit:10;stroke-dasharray:none"
         id="path82" /></g><g
       id="g84"><g
         id="g86"
         clip-path="url(#clipPath88)"><path
           d="m 230.9,177 5.4,0 0,5.4 -5.4,0 0,-5.4 z"
           style="fill:none;stroke:#000000;stroke-opacity:1;stroke-width:0.75;stroke-linecap:round;stroke-linejoin:round;stroke-miterlimit:10;stroke-dasharray:none"
           id="path92" /><path
           d="m 233.21,170.67 5.4,0 0,5.4 -5.4,0 0,-5.4 z"
           style="fill:none;stroke:#000000;stroke-opacity:1;stroke-width:0.75;stroke-linecap:round;stroke-linejoin:round;stroke-miterlimit:10;stroke-dasharray:none"
           id="path94" /><path
           d="m 207.64,190.26 5.4,0 0,5.4 -5.4,0 0,-5.4 z"
           style="fill:none;stroke:#000000;stroke-opacity:1;stroke-width:0.75;stroke-linecap:round;stroke-linejoin:round;stroke-miterlimit:10;stroke-dasharray:none"
           id="path96" /><path
           d="m 209.87,290.78 5.4,0 0,5.4 -5.4,0 0,-5.4 z"
           style="fill:none;stroke:#000000;stroke-opacity:1;stroke-width:0.75;stroke-linecap:round;stroke-linejoin:round;stroke-miterlimit:10;stroke-dasharray:none"
           id="path98" /><path
           d="m 216.22,244.34 5.4,0 0,5.4 -5.4,0 0,-5.4 z"
           style="fill:none;stroke:#000000;stroke-opacity:1;stroke-width:0.75;stroke-linecap:round;stroke-linejoin:round;stroke-miterlimit:10;stroke-dasharray:none"
           id="path100" /><path
           d="m 212.02,222.77 5.4,0 0,5.4 -5.4,0 0,-5.4 z"
           style="fill:none;stroke:#000000;stroke-opacity:1;stroke-width:0.75;stroke-linecap:round;stroke-linejoin:round;stroke-miterlimit:10;stroke-dasharray:none"
           id="path102" /><path
           d="m 223.87,204.05 5.4,0 0,5.4 -5.4,0 0,-5.4 z"
           style="fill:none;stroke:#000000;stroke-opacity:1;stroke-width:0.75;stroke-linecap:round;stroke-linejoin:round;stroke-miterlimit:10;stroke-dasharray:none"
           id="path104" /><path
           d="m 216.67,151.4 5.4,0 0,5.4 -5.4,0 0,-5.4 z"
           style="fill:none;stroke:#000000;stroke-opacity:1;stroke-width:0.75;stroke-linecap:round;stroke-linejoin:round;stroke-miterlimit:10;stroke-dasharray:none"
           id="path106" /><path
           d="m 207.58,238.69 5.4,0 0,5.4 -5.4,0 0,-5.4 z"
           style="fill:none;stroke:#000000;stroke-opacity:1;stroke-width:0.75;stroke-linecap:round;stroke-linejoin:round;stroke-miterlimit:10;stroke-dasharray:none"
           id="path108" /><path
           d="m 207.85,225.34 5.4,0 0,5.4 -5.4,0 0,-5.4 z"
           style="fill:none;stroke:#000000;stroke-opacity:1;stroke-width:0.75;stroke-linecap:round;stroke-linejoin:round;stroke-miterlimit:10;stroke-dasharray:none"
           id="path110" /><path
           d="m 212.93,248.7 5.4,0 0,5.4 -5.4,0 0,-5.4 z"
           style="fill:none;stroke:#000000;stroke-opacity:1;stroke-width:0.75;stroke-linecap:round;stroke-linejoin:round;stroke-miterlimit:10;stroke-dasharray:none"
           id="path112" /><path
           d="m 208.07,137.43 5.4,0 0,5.4 -5.4,0 0,-5.4 z"
           style="fill:none;stroke:#000000;stroke-opacity:1;stroke-width:0.75;stroke-linecap:round;stroke-linejoin:round;stroke-miterlimit:10;stroke-dasharray:none"
           id="path114" /><path
           d="m 217.96,216 5.4,0 0,5.4 -5.4,0 0,-5.4 z"
           style="fill:none;stroke:#000000;stroke-opacity:1;stroke-width:0.75;stroke-linecap:round;stroke-linejoin:round;stroke-miterlimit:10;stroke-dasharray:none"
           id="path116" /><path
           d="m 208.32,341.83 5.4,0 0,5.4 -5.4,0 0,-5.4 z"
           style="fill:none;stroke:#000000;stroke-opacity:1;stroke-width:0.75;stroke-linecap:round;stroke-linejoin:round;stroke-miterlimit:10;stroke-dasharray:none"
           id="path118" /><path
           d="m 214,240.52 5.4,0 0,5.4 -5.4,0 0,-5.4 z"
           style="fill:none;stroke:#000000;stroke-opacity:1;stroke-width:0.75;stroke-linecap:round;stroke-linejoin:round;stroke-miterlimit:10;stroke-dasharray:none"
           id="path120" /><path
           d="m 220.34,210.75 5.4,0 0,5.4 -5.4,0 0,-5.4 z"
           style="fill:none;stroke:#000000;stroke-opacity:1;stroke-width:0.75;stroke-linecap:round;stroke-linejoin:round;stroke-miterlimit:10;stroke-dasharray:none"
           id="path122" /><path
           d="m 226.41,186.71 5.4,0 0,5.4 -5.4,0 0,-5.4 z"
           style="fill:none;stroke:#000000;stroke-opacity:1;stroke-width:0.75;stroke-linecap:round;stroke-linejoin:round;stroke-miterlimit:10;stroke-dasharray:none"
           id="path124" /><path
           d="m 230.09,186.71 5.4,0 0,5.4 -5.4,0 0,-5.4 z"
           style="fill:none;stroke:#000000;stroke-opacity:1;stroke-width:0.75;stroke-linecap:round;stroke-linejoin:round;stroke-miterlimit:10;stroke-dasharray:none"
           id="path126" /><path
           d="m 216.55,335.31 5.4,0 0,5.4 -5.4,0 0,-5.4 z"
           style="fill:none;stroke:#000000;stroke-opacity:1;stroke-width:0.75;stroke-linecap:round;stroke-linejoin:round;stroke-miterlimit:10;stroke-dasharray:none"
           id="path128" /><path
           d="m 220.67,194.5 5.4,0 0,5.4 -5.4,0 0,-5.4 z"
           style="fill:none;stroke:#000000;stroke-opacity:1;stroke-width:0.75;stroke-linecap:round;stroke-linejoin:round;stroke-miterlimit:10;stroke-dasharray:none"
           id="path130" /><path
           d="m 218.16,224.55 5.4,0 0,5.4 -5.4,0 0,-5.4 z"
           style="fill:none;stroke:#000000;stroke-opacity:1;stroke-width:0.75;stroke-linecap:round;stroke-linejoin:round;stroke-miterlimit:10;stroke-dasharray:none"
           id="path132" /><path
           d="m 217.44,167.05 5.4,0 0,5.4 -5.4,0 0,-5.4 z"
           style="fill:none;stroke:#000000;stroke-opacity:1;stroke-width:0.75;stroke-linecap:round;stroke-linejoin:round;stroke-miterlimit:10;stroke-dasharray:none"
           id="path134" /><path
           d="m 232.45,81.17 5.4,0 0,5.4 -5.4,0 0,-5.4 z"
           style="fill:none;stroke:#000000;stroke-opacity:1;stroke-width:0.75;stroke-linecap:round;stroke-linejoin:round;stroke-miterlimit:10;stroke-dasharray:none"
           id="path136" /><path
           d="m 215.41,152.69 5.4,0 0,5.4 -5.4,0 0,-5.4 z"
           style="fill:none;stroke:#000000;stroke-opacity:1;stroke-width:0.75;stroke-linecap:round;stroke-linejoin:round;stroke-miterlimit:10;stroke-dasharray:none"
           id="path138" /><path
           d="m 220.93,296.53 5.4,0 0,5.4 -5.4,0 0,-5.4 z"
           style="fill:none;stroke:#000000;stroke-opacity:1;stroke-width:0.75;stroke-linecap:round;stroke-linejoin:round;stroke-miterlimit:10;stroke-dasharray:none"
           id="path140" /><path
           d="m 207.55,288.98 5.4,0 0,5.4 -5.4,0 0,-5.4 z"
           style="fill:none;stroke:#000000;stroke-opacity:1;stroke-width:0.75;stroke-linecap:round;stroke-linejoin:round;stroke-miterlimit:10;stroke-dasharray:none"
           id="path142" /><path
           d="m 213.31,336.29 5.4,0 0,5.4 -5.4,0 0,-5.4 z"
           style="fill:none;stroke:#000000;stroke-opacity:1;stroke-width:0.75;stroke-linecap:round;stroke-linejoin:round;stroke-miterlimit:10;stroke-dasharray:none"
           id="path144" /><path
           d="m 214.6,336.29 5.4,0 0,5.4 -5.4,0 0,-5.4 z"
           style="fill:none;stroke:#000000;stroke-opacity:1;stroke-width:0.75;stroke-linecap:round;stroke-linejoin:round;stroke-miterlimit:10;stroke-dasharray:none"
           id="path146" /><path
           d="m 225.19,304.45 5.4,0 0,5.4 -5.4,0 0,-5.4 z"
           style="fill:none;stroke:#000000;stroke-opacity:1;stroke-width:0.75;stroke-linecap:round;stroke-linejoin:round;stroke-miterlimit:10;stroke-dasharray:none"
           id="path148" /><path
           d="m 210.85,204.54 5.4,0 0,5.4 -5.4,0 0,-5.4 z"
           style="fill:none;stroke:#000000;stroke-opacity:1;stroke-width:0.75;stroke-linecap:round;stroke-linejoin:round;stroke-miterlimit:10;stroke-dasharray:none"
           id="path150" /></g></g></g></svg>