<?xml version="1.0" encoding="UTF-8" standalone="no"?>
<!DOCTYPE svg PUBLIC "-//W3C//DTD SVG 1.1//EN"
 "http://www.w3.org/Graphics/SVG/1.1/DTD/svg11.dtd">
<!-- Generated by graphviz version 2.26.3 (20100126.1600)
 -->
<!-- Title: G Pages: 1 -->
<svg width="638pt" height="798pt"
 viewBox="0.00 0.00 638.00 798.00" xmlns="http://www.w3.org/2000/svg" xmlns:xlink="http://www.w3.org/1999/xlink">
<g id="graph1" class="graph" transform="scale(1 1) rotate(0) translate(4 794)">
<title>G</title>
<polygon fill="white" stroke="white" points="-4,5 -4,-794 635,-794 635,5 -4,5"/>
<g id="graph2" class="cluster"><title>cluster_0</title>
<polygon fill="none" stroke="white" points="8,-8 8,-782 118,-782 118,-8 8,-8"/>
<text text-anchor="middle" x="63" y="-765.4" font-family="Times Roman,serif" font-size="14.00">INPUT LAYER</text>
</g>
<g id="graph3" class="cluster"><title>cluster_1</title>
<polygon fill="none" stroke="white" points="246,-95 246,-695 369,-695 369,-95 246,-95"/>
<text text-anchor="middle" x="307.5" y="-678.4" font-family="Times Roman,serif" font-size="14.00">HIDDEN LAYER</text>
</g>
<g id="graph4" class="cluster"><title>cluster_2</title>
<polygon fill="none" stroke="white" points="497,-356 497,-434 622,-434 622,-356 497,-356"/>
<text text-anchor="middle" x="559.5" y="-417.4" font-family="Times Roman,serif" font-size="14.00">OUTPUT LAYER</text>
</g>
<!-- bias -->
<g id="node2" class="node"><title>bias</title>
<ellipse fill="none" stroke="black" cx="63" cy="-498" rx="18" ry="18"/>
</g>
<!-- h12 -->
<g id="node16" class="node"><title>h12</title>
<ellipse fill="none" stroke="black" cx="307" cy="-179" rx="18" ry="18"/>
</g>
<!-- bias&#45;&gt;h12 -->
<g id="edge5" class="edge"><title>bias&#45;&gt;h12</title>
<path fill="none" stroke="gray" d="M74.1182,-483.464C114.766,-430.322 255.062,-246.903 295.816,-193.621"/>
</g>
<!-- h22 -->
<g id="node17" class="node"><title>h22</title>
<ellipse fill="none" stroke="black" cx="307" cy="-121" rx="18" ry="18"/>
</g>
<!-- bias&#45;&gt;h22 -->
<g id="edge7" class="edge"><title>bias&#45;&gt;h22</title>
<path fill="none" stroke="gray" d="M72.8673,-482.754C112.186,-422.004 257.472,-197.525 297.01,-136.435"/>
</g>
<!-- h32 -->
<g id="node18" class="node"><title>h32</title>
<ellipse fill="none" stroke="black" cx="307" cy="-643" rx="18" ry="18"/>
</g>
<!-- bias&#45;&gt;h32 -->
<g id="edge9" class="edge"><title>bias&#45;&gt;h32</title>
<path fill="none" stroke="gray" d="M78.6345,-507.291C122.706,-533.481 247.584,-607.691 291.496,-633.786"/>
</g>
<!-- h42 -->
<g id="node19" class="node"><title>h42</title>
<ellipse fill="none" stroke="black" cx="307" cy="-585" rx="18" ry="18"/>
</g>
<!-- bias&#45;&gt;h42 -->
<g id="edge11" class="edge"><title>bias&#45;&gt;h42</title>
<path fill="none" stroke="gray" d="M80.1576,-504.118C124.958,-520.092 245.082,-562.923 289.861,-578.889"/>
</g>
<!-- h52 -->
<g id="node20" class="node"><title>h52</title>
<ellipse fill="none" stroke="black" cx="307" cy="-527" rx="18" ry="18"/>
</g>
<!-- bias&#45;&gt;h52 -->
<g id="edge13" class="edge"><title>bias&#45;&gt;h52</title>
<path fill="none" stroke="gray" d="M80.9419,-500.132C126.065,-505.495 243.881,-519.498 289.032,-524.864"/>
</g>
<!-- h62 -->
<g id="node21" class="node"><title>h62</title>
<ellipse fill="none" stroke="black" cx="307" cy="-469" rx="18" ry="18"/>
</g>
<!-- bias&#45;&gt;h62 -->
<g id="edge15" class="edge"><title>bias&#45;&gt;h62</title>
<path fill="none" stroke="gray" d="M80.9419,-495.868C126.065,-490.505 243.881,-476.502 289.032,-471.136"/>
</g>
<!-- h72 -->
<g id="node22" class="node"><title>h72</title>
<ellipse fill="none" stroke="black" cx="307" cy="-411" rx="18" ry="18"/>
</g>
<!-- bias&#45;&gt;h72 -->
<g id="edge17" class="edge"><title>bias&#45;&gt;h72</title>
<path fill="none" stroke="gray" d="M80.1576,-491.882C124.958,-475.908 245.082,-433.077 289.861,-417.111"/>
</g>
<!-- h82 -->
<g id="node23" class="node"><title>h82</title>
<ellipse fill="none" stroke="black" cx="307" cy="-353" rx="18" ry="18"/>
</g>
<!-- bias&#45;&gt;h82 -->
<g id="edge19" class="edge"><title>bias&#45;&gt;h82</title>
<path fill="none" stroke="gray" d="M78.6345,-488.709C122.706,-462.519 247.584,-388.309 291.496,-362.214"/>
</g>
<!-- h92 -->
<g id="node24" class="node"><title>h92</title>
<ellipse fill="none" stroke="black" cx="307" cy="-295" rx="18" ry="18"/>
</g>
<!-- bias&#45;&gt;h92 -->
<g id="edge21" class="edge"><title>bias&#45;&gt;h92</title>
<path fill="none" stroke="gray" d="M77.1731,-486.208C120.4,-450.245 250.221,-342.238 293.092,-306.571"/>
</g>
<!-- h102 -->
<g id="node25" class="node"><title>h102</title>
<ellipse fill="none" stroke="black" cx="307" cy="-237" rx="18" ry="18"/>
</g>
<!-- bias&#45;&gt;h102 -->
<g id="edge23" class="edge"><title>bias&#45;&gt;h102</title>
<path fill="none" stroke="gray" d="M75.4354,-484.698C117.292,-439.926 252.771,-295.008 294.59,-250.275"/>
</g>
<!-- i1 -->
<g id="node3" class="node"><title>i1</title>
<ellipse fill="none" stroke="black" cx="63" cy="-440" rx="18" ry="18"/>
</g>
<!-- i1&#45;&gt;h12 -->
<g id="edge25" class="edge"><title>i1&#45;&gt;h12</title>
<path fill="none" stroke="gray" d="M75.4354,-426.698C117.292,-381.926 252.771,-237.008 294.59,-192.275"/>
</g>
<!-- i1&#45;&gt;h22 -->
<g id="edge27" class="edge"><title>i1&#45;&gt;h22</title>
<path fill="none" stroke="gray" d="M74.1182,-425.464C114.766,-372.322 255.062,-188.903 295.816,-135.621"/>
</g>
<!-- i1&#45;&gt;h32 -->
<g id="edge29" class="edge"><title>i1&#45;&gt;h32</title>
<path fill="none" stroke="gray" d="M77.1731,-451.792C120.4,-487.755 250.221,-595.762 293.092,-631.429"/>
</g>
<!-- i1&#45;&gt;h42 -->
<g id="edge31" class="edge"><title>i1&#45;&gt;h42</title>
<path fill="none" stroke="gray" d="M78.6345,-449.291C122.706,-475.481 247.584,-549.691 291.496,-575.786"/>
</g>
<!-- i1&#45;&gt;h52 -->
<g id="edge33" class="edge"><title>i1&#45;&gt;h52</title>
<path fill="none" stroke="gray" d="M80.1576,-446.118C124.958,-462.092 245.082,-504.923 289.861,-520.889"/>
</g>
<!-- i1&#45;&gt;h62 -->
<g id="edge35" class="edge"><title>i1&#45;&gt;h62</title>
<path fill="none" stroke="gray" d="M80.9419,-442.132C126.065,-447.495 243.881,-461.498 289.032,-466.864"/>
</g>
<!-- i1&#45;&gt;h72 -->
<g id="edge37" class="edge"><title>i1&#45;&gt;h72</title>
<path fill="none" stroke="gray" d="M80.9419,-437.868C126.065,-432.505 243.881,-418.502 289.032,-413.136"/>
</g>
<!-- i1&#45;&gt;h82 -->
<g id="edge39" class="edge"><title>i1&#45;&gt;h82</title>
<path fill="none" stroke="gray" d="M80.1576,-433.882C124.958,-417.908 245.082,-375.077 289.861,-359.111"/>
</g>
<!-- i1&#45;&gt;h92 -->
<g id="edge41" class="edge"><title>i1&#45;&gt;h92</title>
<path fill="none" stroke="gray" d="M78.6345,-430.709C122.706,-404.519 247.584,-330.309 291.496,-304.214"/>
</g>
<!-- i1&#45;&gt;h102 -->
<g id="edge43" class="edge"><title>i1&#45;&gt;h102</title>
<path fill="none" stroke="gray" d="M77.1731,-428.208C120.4,-392.245 250.221,-284.238 293.092,-248.571"/>
</g>
<!-- i2 -->
<g id="node4" class="node"><title>i2</title>
<ellipse fill="none" stroke="black" cx="63" cy="-382" rx="18" ry="18"/>
</g>
<!-- i2&#45;&gt;h12 -->
<g id="edge45" class="edge"><title>i2&#45;&gt;h12</title>
<path fill="none" stroke="gray" d="M77.1731,-370.208C120.4,-334.245 250.221,-226.238 293.092,-190.571"/>
</g>
<!-- i2&#45;&gt;h22 -->
<g id="edge47" class="edge"><title>i2&#45;&gt;h22</title>
<path fill="none" stroke="gray" d="M75.4354,-368.698C117.292,-323.926 252.771,-179.008 294.59,-134.275"/>
</g>
<!-- i2&#45;&gt;h32 -->
<g id="edge49" class="edge"><title>i2&#45;&gt;h32</title>
<path fill="none" stroke="gray" d="M75.4354,-395.302C117.292,-440.074 252.771,-584.992 294.59,-629.725"/>
</g>
<!-- i2&#45;&gt;h42 -->
<g id="edge51" class="edge"><title>i2&#45;&gt;h42</title>
<path fill="none" stroke="gray" d="M77.1731,-393.792C120.4,-429.755 250.221,-537.762 293.092,-573.429"/>
</g>
<!-- i2&#45;&gt;h52 -->
<g id="edge53" class="edge"><title>i2&#45;&gt;h52</title>
<path fill="none" stroke="gray" d="M78.6345,-391.291C122.706,-417.481 247.584,-491.691 291.496,-517.786"/>
</g>
<!-- i2&#45;&gt;h62 -->
<g id="edge55" class="edge"><title>i2&#45;&gt;h62</title>
<path fill="none" stroke="gray" d="M80.1576,-388.118C124.958,-404.092 245.082,-446.923 289.861,-462.889"/>
</g>
<!-- i2&#45;&gt;h72 -->
<g id="edge57" class="edge"><title>i2&#45;&gt;h72</title>
<path fill="none" stroke="gray" d="M80.9419,-384.132C126.065,-389.495 243.881,-403.498 289.032,-408.864"/>
</g>
<!-- i2&#45;&gt;h82 -->
<g id="edge59" class="edge"><title>i2&#45;&gt;h82</title>
<path fill="none" stroke="gray" d="M80.9419,-379.868C126.065,-374.505 243.881,-360.502 289.032,-355.136"/>
</g>
<!-- i2&#45;&gt;h92 -->
<g id="edge61" class="edge"><title>i2&#45;&gt;h92</title>
<path fill="none" stroke="gray" d="M80.1576,-375.882C124.958,-359.908 245.082,-317.077 289.861,-301.111"/>
</g>
<!-- i2&#45;&gt;h102 -->
<g id="edge63" class="edge"><title>i2&#45;&gt;h102</title>
<path fill="none" stroke="gray" d="M78.6345,-372.709C122.706,-346.519 247.584,-272.309 291.496,-246.214"/>
</g>
<!-- i3 -->
<g id="node5" class="node"><title>i3</title>
<ellipse fill="none" stroke="black" cx="63" cy="-324" rx="18" ry="18"/>
</g>
<!-- i3&#45;&gt;h12 -->
<g id="edge65" class="edge"><title>i3&#45;&gt;h12</title>
<path fill="none" stroke="gray" d="M78.6345,-314.709C122.706,-288.519 247.584,-214.309 291.496,-188.214"/>
</g>
<!-- i3&#45;&gt;h22 -->
<g id="edge67" class="edge"><title>i3&#45;&gt;h22</title>
<path fill="none" stroke="gray" d="M77.1731,-312.208C120.4,-276.245 250.221,-168.238 293.092,-132.571"/>
</g>
<!-- i3&#45;&gt;h32 -->
<g id="edge69" class="edge"><title>i3&#45;&gt;h32</title>
<path fill="none" stroke="gray" d="M74.1182,-338.536C114.766,-391.678 255.062,-575.097 295.816,-628.379"/>
</g>
<!-- i3&#45;&gt;h42 -->
<g id="edge71" class="edge"><title>i3&#45;&gt;h42</title>
<path fill="none" stroke="gray" d="M75.4354,-337.302C117.292,-382.074 252.771,-526.992 294.59,-571.725"/>
</g>
<!-- i3&#45;&gt;h52 -->
<g id="edge73" class="edge"><title>i3&#45;&gt;h52</title>
<path fill="none" stroke="gray" d="M77.1731,-335.792C120.4,-371.755 250.221,-479.762 293.092,-515.429"/>
</g>
<!-- i3&#45;&gt;h62 -->
<g id="edge75" class="edge"><title>i3&#45;&gt;h62</title>
<path fill="none" stroke="gray" d="M78.6345,-333.291C122.706,-359.481 247.584,-433.691 291.496,-459.786"/>
</g>
<!-- i3&#45;&gt;h72 -->
<g id="edge77" class="edge"><title>i3&#45;&gt;h72</title>
<path fill="none" stroke="gray" d="M80.1576,-330.118C124.958,-346.092 245.082,-388.923 289.861,-404.889"/>
</g>
<!-- i3&#45;&gt;h82 -->
<g id="edge79" class="edge"><title>i3&#45;&gt;h82</title>
<path fill="none" stroke="gray" d="M80.9419,-326.132C126.065,-331.495 243.881,-345.498 289.032,-350.864"/>
</g>
<!-- i3&#45;&gt;h92 -->
<g id="edge81" class="edge"><title>i3&#45;&gt;h92</title>
<path fill="none" stroke="gray" d="M80.9419,-321.868C126.065,-316.505 243.881,-302.502 289.032,-297.136"/>
</g>
<!-- i3&#45;&gt;h102 -->
<g id="edge83" class="edge"><title>i3&#45;&gt;h102</title>
<path fill="none" stroke="gray" d="M80.1576,-317.882C124.958,-301.908 245.082,-259.077 289.861,-243.111"/>
</g>
<!-- i4 -->
<g id="node6" class="node"><title>i4</title>
<ellipse fill="none" stroke="black" cx="63" cy="-266" rx="18" ry="18"/>
</g>
<!-- i4&#45;&gt;h12 -->
<g id="edge85" class="edge"><title>i4&#45;&gt;h12</title>
<path fill="none" stroke="gray" d="M80.1576,-259.882C124.958,-243.908 245.082,-201.077 289.861,-185.111"/>
</g>
<!-- i4&#45;&gt;h22 -->
<g id="edge87" class="edge"><title>i4&#45;&gt;h22</title>
<path fill="none" stroke="gray" d="M78.6345,-256.709C122.706,-230.519 247.584,-156.309 291.496,-130.214"/>
</g>
<!-- i4&#45;&gt;h32 -->
<g id="edge89" class="edge"><title>i4&#45;&gt;h32</title>
<path fill="none" stroke="gray" d="M72.8673,-281.246C112.186,-341.996 257.472,-566.475 297.01,-627.565"/>
</g>
<!-- i4&#45;&gt;h42 -->
<g id="edge91" class="edge"><title>i4&#45;&gt;h42</title>
<path fill="none" stroke="gray" d="M74.1182,-280.536C114.766,-333.678 255.062,-517.097 295.816,-570.379"/>
</g>
<!-- i4&#45;&gt;h52 -->
<g id="edge93" class="edge"><title>i4&#45;&gt;h52</title>
<path fill="none" stroke="gray" d="M75.4354,-279.302C117.292,-324.074 252.771,-468.992 294.59,-513.725"/>
</g>
<!-- i4&#45;&gt;h62 -->
<g id="edge95" class="edge"><title>i4&#45;&gt;h62</title>
<path fill="none" stroke="gray" d="M77.1731,-277.792C120.4,-313.755 250.221,-421.762 293.092,-457.429"/>
</g>
<!-- i4&#45;&gt;h72 -->
<g id="edge97" class="edge"><title>i4&#45;&gt;h72</title>
<path fill="none" stroke="gray" d="M78.6345,-275.291C122.706,-301.481 247.584,-375.691 291.496,-401.786"/>
</g>
<!-- i4&#45;&gt;h82 -->
<g id="edge99" class="edge"><title>i4&#45;&gt;h82</title>
<path fill="none" stroke="gray" d="M80.1576,-272.118C124.958,-288.092 245.082,-330.923 289.861,-346.889"/>
</g>
<!-- i4&#45;&gt;h92 -->
<g id="edge101" class="edge"><title>i4&#45;&gt;h92</title>
<path fill="none" stroke="gray" d="M80.9419,-268.132C126.065,-273.495 243.881,-287.498 289.032,-292.864"/>
</g>
<!-- i4&#45;&gt;h102 -->
<g id="edge103" class="edge"><title>i4&#45;&gt;h102</title>
<path fill="none" stroke="gray" d="M80.9419,-263.868C126.065,-258.505 243.881,-244.502 289.032,-239.136"/>
</g>
<!-- i5 -->
<g id="node7" class="node"><title>i5</title>
<ellipse fill="none" stroke="black" cx="63" cy="-208" rx="18" ry="18"/>
</g>
<!-- i5&#45;&gt;h12 -->
<g id="edge105" class="edge"><title>i5&#45;&gt;h12</title>
<path fill="none" stroke="gray" d="M80.9419,-205.868C126.065,-200.505 243.881,-186.502 289.032,-181.136"/>
</g>
<!-- i5&#45;&gt;h22 -->
<g id="edge107" class="edge"><title>i5&#45;&gt;h22</title>
<path fill="none" stroke="gray" d="M80.1576,-201.882C124.958,-185.908 245.082,-143.077 289.861,-127.111"/>
</g>
<!-- i5&#45;&gt;h32 -->
<g id="edge109" class="edge"><title>i5&#45;&gt;h32</title>
<path fill="none" stroke="gray" d="M71.8282,-223.739C109.934,-291.672 260.102,-559.39 298.184,-627.282"/>
</g>
<!-- i5&#45;&gt;h42 -->
<g id="edge111" class="edge"><title>i5&#45;&gt;h42</title>
<path fill="none" stroke="gray" d="M72.8673,-223.246C112.186,-283.996 257.472,-508.475 297.01,-569.565"/>
</g>
<!-- i5&#45;&gt;h52 -->
<g id="edge113" class="edge"><title>i5&#45;&gt;h52</title>
<path fill="none" stroke="gray" d="M74.1182,-222.536C114.766,-275.678 255.062,-459.097 295.816,-512.379"/>
</g>
<!-- i5&#45;&gt;h62 -->
<g id="edge115" class="edge"><title>i5&#45;&gt;h62</title>
<path fill="none" stroke="gray" d="M75.4354,-221.302C117.292,-266.074 252.771,-410.992 294.59,-455.725"/>
</g>
<!-- i5&#45;&gt;h72 -->
<g id="edge117" class="edge"><title>i5&#45;&gt;h72</title>
<path fill="none" stroke="gray" d="M77.1731,-219.792C120.4,-255.755 250.221,-363.762 293.092,-399.429"/>
</g>
<!-- i5&#45;&gt;h82 -->
<g id="edge119" class="edge"><title>i5&#45;&gt;h82</title>
<path fill="none" stroke="gray" d="M78.6345,-217.291C122.706,-243.481 247.584,-317.691 291.496,-343.786"/>
</g>
<!-- i5&#45;&gt;h92 -->
<g id="edge121" class="edge"><title>i5&#45;&gt;h92</title>
<path fill="none" stroke="gray" d="M80.1576,-214.118C124.958,-230.092 245.082,-272.923 289.861,-288.889"/>
</g>
<!-- i5&#45;&gt;h102 -->
<g id="edge123" class="edge"><title>i5&#45;&gt;h102</title>
<path fill="none" stroke="gray" d="M80.9419,-210.132C126.065,-215.495 243.881,-229.498 289.032,-234.864"/>
</g>
<!-- i6 -->
<g id="node8" class="node"><title>i6</title>
<ellipse fill="none" stroke="black" cx="63" cy="-150" rx="18" ry="18"/>
</g>
<!-- i6&#45;&gt;h12 -->
<g id="edge125" class="edge"><title>i6&#45;&gt;h12</title>
<path fill="none" stroke="gray" d="M80.9419,-152.132C126.065,-157.495 243.881,-171.498 289.032,-176.864"/>
</g>
<!-- i6&#45;&gt;h22 -->
<g id="edge127" class="edge"><title>i6&#45;&gt;h22</title>
<path fill="none" stroke="gray" d="M80.9419,-147.868C126.065,-142.505 243.881,-128.502 289.032,-123.136"/>
</g>
<!-- i6&#45;&gt;h32 -->
<g id="edge129" class="edge"><title>i6&#45;&gt;h32</title>
<path fill="none" stroke="gray" d="M71.1183,-166.403C108.247,-241.42 261.659,-551.39 298.851,-626.535"/>
</g>
<!-- i6&#45;&gt;h42 -->
<g id="edge131" class="edge"><title>i6&#45;&gt;h42</title>
<path fill="none" stroke="gray" d="M71.8282,-165.739C109.934,-233.672 260.102,-501.39 298.184,-569.282"/>
</g>
<!-- i6&#45;&gt;h52 -->
<g id="edge133" class="edge"><title>i6&#45;&gt;h52</title>
<path fill="none" stroke="gray" d="M72.8673,-165.246C112.186,-225.996 257.472,-450.475 297.01,-511.565"/>
</g>
<!-- i6&#45;&gt;h62 -->
<g id="edge135" class="edge"><title>i6&#45;&gt;h62</title>
<path fill="none" stroke="gray" d="M74.1182,-164.536C114.766,-217.678 255.062,-401.097 295.816,-454.379"/>
</g>
<!-- i6&#45;&gt;h72 -->
<g id="edge137" class="edge"><title>i6&#45;&gt;h72</title>
<path fill="none" stroke="gray" d="M75.4354,-163.302C117.292,-208.074 252.771,-352.992 294.59,-397.725"/>
</g>
<!-- i6&#45;&gt;h82 -->
<g id="edge139" class="edge"><title>i6&#45;&gt;h82</title>
<path fill="none" stroke="gray" d="M77.1731,-161.792C120.4,-197.755 250.221,-305.762 293.092,-341.429"/>
</g>
<!-- i6&#45;&gt;h92 -->
<g id="edge141" class="edge"><title>i6&#45;&gt;h92</title>
<path fill="none" stroke="gray" d="M78.6345,-159.291C122.706,-185.481 247.584,-259.691 291.496,-285.786"/>
</g>
<!-- i6&#45;&gt;h102 -->
<g id="edge143" class="edge"><title>i6&#45;&gt;h102</title>
<path fill="none" stroke="gray" d="M80.1576,-156.118C124.958,-172.092 245.082,-214.923 289.861,-230.889"/>
</g>
<!-- i7 -->
<g id="node9" class="node"><title>i7</title>
<ellipse fill="none" stroke="black" cx="63" cy="-92" rx="18" ry="18"/>
</g>
<!-- i7&#45;&gt;h12 -->
<g id="edge145" class="edge"><title>i7&#45;&gt;h12</title>
<path fill="none" stroke="gray" d="M80.1576,-98.1177C124.958,-114.092 245.082,-156.923 289.861,-172.889"/>
</g>
<!-- i7&#45;&gt;h22 -->
<g id="edge147" class="edge"><title>i7&#45;&gt;h22</title>
<path fill="none" stroke="gray" d="M80.9419,-94.1324C126.065,-99.4954 243.881,-113.498 289.032,-118.864"/>
</g>
<!-- i7&#45;&gt;h32 -->
<g id="edge149" class="edge"><title>i7&#45;&gt;h32</title>
<path fill="none" stroke="gray" d="M70.3024,-108.49C106.183,-189.516 263.522,-544.819 299.607,-626.305"/>
</g>
<!-- i7&#45;&gt;h42 -->
<g id="edge151" class="edge"><title>i7&#45;&gt;h42</title>
<path fill="none" stroke="gray" d="M71.1183,-108.403C108.247,-183.42 261.659,-493.39 298.851,-568.535"/>
</g>
<!-- i7&#45;&gt;h52 -->
<g id="edge153" class="edge"><title>i7&#45;&gt;h52</title>
<path fill="none" stroke="gray" d="M71.8282,-107.739C109.934,-175.672 260.102,-443.39 298.184,-511.282"/>
</g>
<!-- i7&#45;&gt;h62 -->
<g id="edge155" class="edge"><title>i7&#45;&gt;h62</title>
<path fill="none" stroke="gray" d="M72.8673,-107.246C112.186,-167.996 257.472,-392.475 297.01,-453.565"/>
</g>
<!-- i7&#45;&gt;h72 -->
<g id="edge157" class="edge"><title>i7&#45;&gt;h72</title>
<path fill="none" stroke="gray" d="M74.1182,-106.536C114.766,-159.678 255.062,-343.097 295.816,-396.379"/>
</g>
<!-- i7&#45;&gt;h82 -->
<g id="edge159" class="edge"><title>i7&#45;&gt;h82</title>
<path fill="none" stroke="gray" d="M75.4354,-105.302C117.292,-150.074 252.771,-294.992 294.59,-339.725"/>
</g>
<!-- i7&#45;&gt;h92 -->
<g id="edge161" class="edge"><title>i7&#45;&gt;h92</title>
<path fill="none" stroke="gray" d="M77.1731,-103.792C120.4,-139.755 250.221,-247.762 293.092,-283.429"/>
</g>
<!-- i7&#45;&gt;h102 -->
<g id="edge163" class="edge"><title>i7&#45;&gt;h102</title>
<path fill="none" stroke="gray" d="M78.6345,-101.291C122.706,-127.481 247.584,-201.691 291.496,-227.786"/>
</g>
<!-- i8 -->
<g id="node10" class="node"><title>i8</title>
<ellipse fill="none" stroke="black" cx="63" cy="-34" rx="18" ry="18"/>
</g>
<!-- i8&#45;&gt;h12 -->
<g id="edge165" class="edge"><title>i8&#45;&gt;h12</title>
<path fill="none" stroke="gray" d="M78.6345,-43.291C122.706,-69.481 247.584,-143.691 291.496,-169.786"/>
</g>
<!-- i8&#45;&gt;h22 -->
<g id="edge167" class="edge"><title>i8&#45;&gt;h22</title>
<path fill="none" stroke="gray" d="M80.1576,-40.1177C124.958,-56.0916 245.082,-98.9227 289.861,-114.889"/>
</g>
<!-- i8&#45;&gt;h32 -->
<g id="edge169" class="edge"><title>i8&#45;&gt;h32</title>
<path fill="none" stroke="gray" d="M69.7806,-50.9238C104.84,-138.428 265.271,-538.849 300.252,-626.158"/>
</g>
<!-- i8&#45;&gt;h42 -->
<g id="edge171" class="edge"><title>i8&#45;&gt;h42</title>
<path fill="none" stroke="gray" d="M70.3024,-50.4903C106.183,-131.516 263.522,-486.819 299.607,-568.305"/>
</g>
<!-- i8&#45;&gt;h52 -->
<g id="edge173" class="edge"><title>i8&#45;&gt;h52</title>
<path fill="none" stroke="gray" d="M71.1183,-50.403C108.247,-125.42 261.659,-435.39 298.851,-510.535"/>
</g>
<!-- i8&#45;&gt;h62 -->
<g id="edge175" class="edge"><title>i8&#45;&gt;h62</title>
<path fill="none" stroke="gray" d="M71.8282,-49.7389C109.934,-117.672 260.102,-385.39 298.184,-453.282"/>
</g>
<!-- i8&#45;&gt;h72 -->
<g id="edge177" class="edge"><title>i8&#45;&gt;h72</title>
<path fill="none" stroke="gray" d="M72.8673,-49.2458C112.186,-109.996 257.472,-334.475 297.01,-395.565"/>
</g>
<!-- i8&#45;&gt;h82 -->
<g id="edge179" class="edge"><title>i8&#45;&gt;h82</title>
<path fill="none" stroke="gray" d="M74.1182,-48.5357C114.766,-101.678 255.062,-285.097 295.816,-338.379"/>
</g>
<!-- i8&#45;&gt;h92 -->
<g id="edge181" class="edge"><title>i8&#45;&gt;h92</title>
<path fill="none" stroke="gray" d="M75.4354,-47.3019C117.292,-92.0743 252.771,-236.992 294.59,-281.725"/>
</g>
<!-- i8&#45;&gt;h102 -->
<g id="edge183" class="edge"><title>i8&#45;&gt;h102</title>
<path fill="none" stroke="gray" d="M77.1731,-45.7916C120.4,-81.7549 250.221,-189.762 293.092,-225.429"/>
</g>
<!-- i9 -->
<g id="node11" class="node"><title>i9</title>
<ellipse fill="none" stroke="black" cx="63" cy="-730" rx="18" ry="18"/>
</g>
<!-- i9&#45;&gt;h12 -->
<g id="edge185" class="edge"><title>i9&#45;&gt;h12</title>
<path fill="none" stroke="gray" d="M70.3024,-713.51C106.183,-632.484 263.522,-277.181 299.607,-195.695"/>
</g>
<!-- i9&#45;&gt;h22 -->
<g id="edge187" class="edge"><title>i9&#45;&gt;h22</title>
<path fill="none" stroke="gray" d="M69.7806,-713.076C104.84,-625.572 265.271,-225.151 300.252,-137.842"/>
</g>
<!-- i9&#45;&gt;h32 -->
<g id="edge189" class="edge"><title>i9&#45;&gt;h32</title>
<path fill="none" stroke="gray" d="M80.1576,-723.882C124.958,-707.908 245.082,-665.077 289.861,-649.111"/>
</g>
<!-- i9&#45;&gt;h42 -->
<g id="edge191" class="edge"><title>i9&#45;&gt;h42</title>
<path fill="none" stroke="gray" d="M78.6345,-720.709C122.706,-694.519 247.584,-620.309 291.496,-594.214"/>
</g>
<!-- i9&#45;&gt;h52 -->
<g id="edge193" class="edge"><title>i9&#45;&gt;h52</title>
<path fill="none" stroke="gray" d="M77.1731,-718.208C120.4,-682.245 250.221,-574.238 293.092,-538.571"/>
</g>
<!-- i9&#45;&gt;h62 -->
<g id="edge195" class="edge"><title>i9&#45;&gt;h62</title>
<path fill="none" stroke="gray" d="M75.4354,-716.698C117.292,-671.926 252.771,-527.008 294.59,-482.275"/>
</g>
<!-- i9&#45;&gt;h72 -->
<g id="edge197" class="edge"><title>i9&#45;&gt;h72</title>
<path fill="none" stroke="gray" d="M74.1182,-715.464C114.766,-662.322 255.062,-478.903 295.816,-425.621"/>
</g>
<!-- i9&#45;&gt;h82 -->
<g id="edge199" class="edge"><title>i9&#45;&gt;h82</title>
<path fill="none" stroke="gray" d="M72.8673,-714.754C112.186,-654.004 257.472,-429.525 297.01,-368.435"/>
</g>
<!-- i9&#45;&gt;h92 -->
<g id="edge201" class="edge"><title>i9&#45;&gt;h92</title>
<path fill="none" stroke="gray" d="M71.8282,-714.261C109.934,-646.328 260.102,-378.61 298.184,-310.718"/>
</g>
<!-- i9&#45;&gt;h102 -->
<g id="edge203" class="edge"><title>i9&#45;&gt;h102</title>
<path fill="none" stroke="gray" d="M71.1183,-713.597C108.247,-638.58 261.659,-328.61 298.851,-253.465"/>
</g>
<!-- i10 -->
<g id="node12" class="node"><title>i10</title>
<ellipse fill="none" stroke="black" cx="63" cy="-672" rx="18" ry="18"/>
</g>
<!-- i10&#45;&gt;h12 -->
<g id="edge205" class="edge"><title>i10&#45;&gt;h12</title>
<path fill="none" stroke="gray" d="M71.1183,-655.597C108.247,-580.58 261.659,-270.61 298.851,-195.465"/>
</g>
<!-- i10&#45;&gt;h22 -->
<g id="edge207" class="edge"><title>i10&#45;&gt;h22</title>
<path fill="none" stroke="gray" d="M70.3024,-655.51C106.183,-574.484 263.522,-219.181 299.607,-137.695"/>
</g>
<!-- i10&#45;&gt;h32 -->
<g id="edge209" class="edge"><title>i10&#45;&gt;h32</title>
<path fill="none" stroke="gray" d="M80.9419,-669.868C126.065,-664.505 243.881,-650.502 289.032,-645.136"/>
</g>
<!-- i10&#45;&gt;h42 -->
<g id="edge211" class="edge"><title>i10&#45;&gt;h42</title>
<path fill="none" stroke="gray" d="M80.1576,-665.882C124.958,-649.908 245.082,-607.077 289.861,-591.111"/>
</g>
<!-- i10&#45;&gt;h52 -->
<g id="edge213" class="edge"><title>i10&#45;&gt;h52</title>
<path fill="none" stroke="gray" d="M78.6345,-662.709C122.706,-636.519 247.584,-562.309 291.496,-536.214"/>
</g>
<!-- i10&#45;&gt;h62 -->
<g id="edge215" class="edge"><title>i10&#45;&gt;h62</title>
<path fill="none" stroke="gray" d="M77.1731,-660.208C120.4,-624.245 250.221,-516.238 293.092,-480.571"/>
</g>
<!-- i10&#45;&gt;h72 -->
<g id="edge217" class="edge"><title>i10&#45;&gt;h72</title>
<path fill="none" stroke="gray" d="M75.4354,-658.698C117.292,-613.926 252.771,-469.008 294.59,-424.275"/>
</g>
<!-- i10&#45;&gt;h82 -->
<g id="edge219" class="edge"><title>i10&#45;&gt;h82</title>
<path fill="none" stroke="gray" d="M74.1182,-657.464C114.766,-604.322 255.062,-420.903 295.816,-367.621"/>
</g>
<!-- i10&#45;&gt;h92 -->
<g id="edge221" class="edge"><title>i10&#45;&gt;h92</title>
<path fill="none" stroke="gray" d="M72.8673,-656.754C112.186,-596.004 257.472,-371.525 297.01,-310.435"/>
</g>
<!-- i10&#45;&gt;h102 -->
<g id="edge223" class="edge"><title>i10&#45;&gt;h102</title>
<path fill="none" stroke="gray" d="M71.8282,-656.261C109.934,-588.328 260.102,-320.61 298.184,-252.718"/>
</g>
<!-- i11 -->
<g id="node13" class="node"><title>i11</title>
<ellipse fill="none" stroke="black" cx="63" cy="-614" rx="18" ry="18"/>
</g>
<!-- i11&#45;&gt;h12 -->
<g id="edge225" class="edge"><title>i11&#45;&gt;h12</title>
<path fill="none" stroke="gray" d="M71.8282,-598.261C109.934,-530.328 260.102,-262.61 298.184,-194.718"/>
</g>
<!-- i11&#45;&gt;h22 -->
<g id="edge227" class="edge"><title>i11&#45;&gt;h22</title>
<path fill="none" stroke="gray" d="M71.1183,-597.597C108.247,-522.58 261.659,-212.61 298.851,-137.465"/>
</g>
<!-- i11&#45;&gt;h32 -->
<g id="edge229" class="edge"><title>i11&#45;&gt;h32</title>
<path fill="none" stroke="gray" d="M80.9419,-616.132C126.065,-621.495 243.881,-635.498 289.032,-640.864"/>
</g>
<!-- i11&#45;&gt;h42 -->
<g id="edge231" class="edge"><title>i11&#45;&gt;h42</title>
<path fill="none" stroke="gray" d="M80.9419,-611.868C126.065,-606.505 243.881,-592.502 289.032,-587.136"/>
</g>
<!-- i11&#45;&gt;h52 -->
<g id="edge233" class="edge"><title>i11&#45;&gt;h52</title>
<path fill="none" stroke="gray" d="M80.1576,-607.882C124.958,-591.908 245.082,-549.077 289.861,-533.111"/>
</g>
<!-- i11&#45;&gt;h62 -->
<g id="edge235" class="edge"><title>i11&#45;&gt;h62</title>
<path fill="none" stroke="gray" d="M78.6345,-604.709C122.706,-578.519 247.584,-504.309 291.496,-478.214"/>
</g>
<!-- i11&#45;&gt;h72 -->
<g id="edge237" class="edge"><title>i11&#45;&gt;h72</title>
<path fill="none" stroke="gray" d="M77.1731,-602.208C120.4,-566.245 250.221,-458.238 293.092,-422.571"/>
</g>
<!-- i11&#45;&gt;h82 -->
<g id="edge239" class="edge"><title>i11&#45;&gt;h82</title>
<path fill="none" stroke="gray" d="M75.4354,-600.698C117.292,-555.926 252.771,-411.008 294.59,-366.275"/>
</g>
<!-- i11&#45;&gt;h92 -->
<g id="edge241" class="edge"><title>i11&#45;&gt;h92</title>
<path fill="none" stroke="gray" d="M74.1182,-599.464C114.766,-546.322 255.062,-362.903 295.816,-309.621"/>
</g>
<!-- i11&#45;&gt;h102 -->
<g id="edge243" class="edge"><title>i11&#45;&gt;h102</title>
<path fill="none" stroke="gray" d="M72.8673,-598.754C112.186,-538.004 257.472,-313.525 297.01,-252.435"/>
</g>
<!-- i12 -->
<g id="node14" class="node"><title>i12</title>
<ellipse fill="none" stroke="black" cx="63" cy="-556" rx="18" ry="18"/>
</g>
<!-- i12&#45;&gt;h12 -->
<g id="edge245" class="edge"><title>i12&#45;&gt;h12</title>
<path fill="none" stroke="gray" d="M72.8673,-540.754C112.186,-480.004 257.472,-255.525 297.01,-194.435"/>
</g>
<!-- i12&#45;&gt;h22 -->
<g id="edge247" class="edge"><title>i12&#45;&gt;h22</title>
<path fill="none" stroke="gray" d="M71.8282,-540.261C109.934,-472.328 260.102,-204.61 298.184,-136.718"/>
</g>
<!-- i12&#45;&gt;h32 -->
<g id="edge249" class="edge"><title>i12&#45;&gt;h32</title>
<path fill="none" stroke="gray" d="M80.1576,-562.118C124.958,-578.092 245.082,-620.923 289.861,-636.889"/>
</g>
<!-- i12&#45;&gt;h42 -->
<g id="edge251" class="edge"><title>i12&#45;&gt;h42</title>
<path fill="none" stroke="gray" d="M80.9419,-558.132C126.065,-563.495 243.881,-577.498 289.032,-582.864"/>
</g>
<!-- i12&#45;&gt;h52 -->
<g id="edge253" class="edge"><title>i12&#45;&gt;h52</title>
<path fill="none" stroke="gray" d="M80.9419,-553.868C126.065,-548.505 243.881,-534.502 289.032,-529.136"/>
</g>
<!-- i12&#45;&gt;h62 -->
<g id="edge255" class="edge"><title>i12&#45;&gt;h62</title>
<path fill="none" stroke="gray" d="M80.1576,-549.882C124.958,-533.908 245.082,-491.077 289.861,-475.111"/>
</g>
<!-- i12&#45;&gt;h72 -->
<g id="edge257" class="edge"><title>i12&#45;&gt;h72</title>
<path fill="none" stroke="gray" d="M78.6345,-546.709C122.706,-520.519 247.584,-446.309 291.496,-420.214"/>
</g>
<!-- i12&#45;&gt;h82 -->
<g id="edge259" class="edge"><title>i12&#45;&gt;h82</title>
<path fill="none" stroke="gray" d="M77.1731,-544.208C120.4,-508.245 250.221,-400.238 293.092,-364.571"/>
</g>
<!-- i12&#45;&gt;h92 -->
<g id="edge261" class="edge"><title>i12&#45;&gt;h92</title>
<path fill="none" stroke="gray" d="M75.4354,-542.698C117.292,-497.926 252.771,-353.008 294.59,-308.275"/>
</g>
<!-- i12&#45;&gt;h102 -->
<g id="edge263" class="edge"><title>i12&#45;&gt;h102</title>
<path fill="none" stroke="gray" d="M74.1182,-541.464C114.766,-488.322 255.062,-304.903 295.816,-251.621"/>
</g>
<!-- o1 -->
<g id="node27" class="node"><title>o1</title>
<ellipse fill="none" stroke="black" cx="559" cy="-382" rx="18" ry="18"/>
</g>
<!-- h12&#45;&gt;o1 -->
<g id="edge265" class="edge"><title>h12&#45;&gt;o1</title>
<path fill="none" stroke="gray" d="M321.271,-190.496C365.625,-226.226 500.745,-335.073 544.886,-370.63"/>
</g>
<!-- h22&#45;&gt;o1 -->
<g id="edge267" class="edge"><title>h22&#45;&gt;o1</title>
<path fill="none" stroke="gray" d="M319.843,-134.302C363.172,-179.178 503.643,-324.665 546.482,-369.035"/>
</g>
<!-- h32&#45;&gt;o1 -->
<g id="edge269" class="edge"><title>h32&#45;&gt;o1</title>
<path fill="none" stroke="gray" d="M319.843,-629.698C363.172,-584.822 503.643,-439.335 546.482,-394.965"/>
</g>
<!-- h42&#45;&gt;o1 -->
<g id="edge271" class="edge"><title>h42&#45;&gt;o1</title>
<path fill="none" stroke="gray" d="M321.271,-573.504C365.625,-537.774 500.745,-428.927 544.886,-393.37"/>
</g>
<!-- h52&#45;&gt;o1 -->
<g id="edge273" class="edge"><title>h52&#45;&gt;o1</title>
<path fill="none" stroke="gray" d="M322.764,-517.93C368.02,-491.89 497.994,-417.103 543.242,-391.067"/>
</g>
<!-- h62&#45;&gt;o1 -->
<g id="edge275" class="edge"><title>h62&#45;&gt;o1</title>
<path fill="none" stroke="gray" d="M324.321,-463.02C370.469,-447.088 495.987,-403.754 541.891,-387.907"/>
</g>
<!-- h72&#45;&gt;o1 -->
<g id="edge277" class="edge"><title>h72&#45;&gt;o1</title>
<path fill="none" stroke="gray" d="M325.123,-408.914C371.619,-403.564 494.726,-389.397 541.041,-384.067"/>
</g>
<!-- h82&#45;&gt;o1 -->
<g id="edge279" class="edge"><title>h82&#45;&gt;o1</title>
<path fill="none" stroke="gray" d="M325.123,-355.086C371.619,-360.436 494.726,-374.603 541.041,-379.933"/>
</g>
<!-- h92&#45;&gt;o1 -->
<g id="edge281" class="edge"><title>h92&#45;&gt;o1</title>
<path fill="none" stroke="gray" d="M324.321,-300.98C370.469,-316.912 495.987,-360.246 541.891,-376.093"/>
</g>
<!-- h102&#45;&gt;o1 -->
<g id="edge283" class="edge"><title>h102&#45;&gt;o1</title>
<path fill="none" stroke="gray" d="M322.764,-246.07C368.02,-272.11 497.994,-346.897 543.242,-372.933"/>
</g>
</g>
</svg>
